HIERARCHY
ROOT RootJoint
{
    OFFSET   0.000000   0.000000   0.000000
    CHANNELS 6 Xposition Yposition Zposition Xrotation Yrotation Zrotation
    JOINT pelvis_lowerback
    {
        OFFSET   0.000000   0.093605   0.000000
        CHANNELS 3 Xrotation Yrotation Zrotation
        JOINT lowerback_torso
        {
            OFFSET   0.000000   0.100000   0.000000
            CHANNELS 3 Xrotation Yrotation Zrotation
            JOINT torso_head
            {
                OFFSET   0.000000   0.282350   0.000000
                CHANNELS 3 Xrotation Yrotation Zrotation
                End Site
                {
                    OFFSET   0.000000   0.192650   0.000000
                }
            }
            JOINT rTorso_Clavicle
            {
                OFFSET  -0.001000   0.157500   0.000000
                CHANNELS 3 Xrotation Yrotation Zrotation
                JOINT rShoulder
                {
                    OFFSET  -0.117647   0.000000   0.000000
                    CHANNELS 3 Xrotation Yrotation Zrotation
                    JOINT rElbow
                    {
                        OFFSET  -0.245000   0.000000   0.000000
                        CHANNELS 3 Xrotation Yrotation Zrotation
                        JOINT rWrist
                        {
                            OFFSET  -0.240000   0.000000   0.000000
                            CHANNELS 3 Xrotation Yrotation Zrotation
                            End Site
                            {
                                OFFSET  -0.116353  -0.002500   0.000000
                            }
                        }
                    }
                }
            }
            JOINT lTorso_Clavicle
            {
                OFFSET   0.001000   0.157500   0.000000
                CHANNELS 3 Xrotation Yrotation Zrotation
                JOINT lShoulder
                {
                    OFFSET   0.117647   0.000000   0.000000
                    CHANNELS 3 Xrotation Yrotation Zrotation
                    JOINT lElbow
                    {
                        OFFSET   0.245000   0.000000   0.000000
                        CHANNELS 3 Xrotation Yrotation Zrotation
                        JOINT lWrist
                        {
                            OFFSET   0.240000   0.000000   0.000000
                            CHANNELS 3 Xrotation Yrotation Zrotation
                            End Site
                            {
                                OFFSET   0.116353  -0.002500   0.000000
                            }
                        }
                    }
                }
            }
        }
    }
    JOINT rHip
    {
        OFFSET  -0.100000  -0.051395   0.000000
        CHANNELS 3 Xrotation Yrotation Zrotation
        JOINT rKnee
        {
            OFFSET   0.000000  -0.410000   0.000000
            CHANNELS 3 Xrotation Yrotation Zrotation
            JOINT rAnkle
            {
                OFFSET   0.000000  -0.390000   0.000000
                CHANNELS 3 Xrotation Yrotation Zrotation
                JOINT rToeJoint
                {
                    OFFSET   0.000000  -0.050000   0.130000
                    CHANNELS 3 Xrotation Yrotation Zrotation
                    End Site
                    {
                        OFFSET  -0.010000   0.002000   0.060000
                    }
                }
            }
        }
    }
    JOINT lHip
    {
        OFFSET   0.100000  -0.051395   0.000000
        CHANNELS 3 Xrotation Yrotation Zrotation
        JOINT lKnee
        {
            OFFSET   0.000000  -0.410000   0.000000
            CHANNELS 3 Xrotation Yrotation Zrotation
            JOINT lAnkle
            {
                OFFSET   0.000000  -0.390000   0.000000
                CHANNELS 3 Xrotation Yrotation Zrotation
                JOINT lToeJoint
                {
                    OFFSET   0.000000  -0.050000   0.130000
                    CHANNELS 3 Xrotation Yrotation Zrotation
                    End Site
                    {
                        OFFSET   0.010000   0.002000   0.060000
                    }
                }
            }
        }
    }
}
MOTION
Frames: 14
Frame Time:   0.008333
 -2.151209   0.877315   4.998453  10.390559  36.741175 -10.467216  13.277147  10.355463  -5.777912   4.602191   7.226049  -6.144216   1.904607 -14.559962   6.245022  -5.198655   7.859656 -11.951459 -17.792354   6.288658   3.009317  -0.027505  54.021012   0.045530  -0.480412   3.149400  -0.125285   5.930790  11.908962   0.981838  36.398374   9.729426 -33.403500  -0.001771 -51.762413  -0.038869   0.556623  -2.287336  -3.225797 -14.650261 -13.591239   2.570048  54.564569  -0.039208  -0.037322  -6.250963  -4.009363  19.669496  -8.045578   0.007882  -0.103991 -36.414901  -5.468543   8.063488  41.345995  -0.000851  -0.004031  -7.529674 -11.146782  -4.811656  -9.786006   0.001123   0.005837
 -2.154919   0.874930   5.000992  10.507287  37.437514 -10.261527  13.789760  10.556546  -6.030359   4.557511   7.409594  -6.592204   1.974047 -14.846407   6.391977  -5.073402   7.759087 -11.851394 -16.598746   5.945021   3.659189  -0.022562  53.994019   0.036924  -0.504627   3.125312  -0.536534   5.602240  11.994547   0.611662  34.801076   9.617221 -33.052765  -0.002780 -52.452097  -0.043614   0.667852  -1.827597  -2.995053 -14.322446 -13.579333   2.760211  54.605587  -0.031302  -0.029575  -7.278164  -4.272778  19.812815 -10.439874   0.014947  -0.097228 -36.555043  -5.542931   7.833726  41.402553  -0.000731  -0.002961  -8.117721 -11.421852  -4.822944  -8.882926  -0.001354   0.005810
 -2.158267   0.872841   5.003467  10.503270  37.930261  -9.990294  14.272522  10.760987  -6.264548   4.535383   7.608867  -7.023848   2.038185 -15.112519   6.524492  -4.861561   7.713596 -11.582722 -15.413754   5.660102   4.424154  -0.017787  54.002809   0.029349  -0.523420   3.324678  -0.583866   5.228676  12.018251   0.116898  33.255985   9.398654 -32.792939  -0.003251 -53.140835  -0.046768   0.754351  -1.541903  -2.781849 -14.042043 -13.594580   2.883656  54.723320  -0.025033  -0.023020  -8.178783  -4.524569  19.951404 -12.027716   0.018538  -0.083342 -36.604993  -5.607262   7.679372  41.510361  -0.000736  -0.002019  -8.606405 -11.686551  -4.857544  -8.240642  -0.002494   0.004699
 -2.161345   0.870972   5.005898  10.442073  38.337868  -9.692971  14.722769  10.921962  -6.475618   4.517947   7.778322  -7.417783   2.091651 -15.362635   6.646378  -4.614488   7.701232 -11.212791 -14.269398   5.414731   5.233389  -0.013869  54.015462   0.023219  -0.543872   3.571053  -0.384014   4.843291  11.987688  -0.439918  31.786295   9.118273 -32.594212  -0.003641 -53.809642  -0.048344   0.825678  -1.419103  -2.653570 -13.779557 -13.626541   2.973758  54.860613  -0.020067  -0.017798  -8.986853  -4.762103  20.082043 -13.144684   0.019354  -0.069364 -36.635653  -5.611403   7.573808  41.683243  -0.000820  -0.001072  -9.080413 -11.885055  -5.044062  -7.713728  -0.002434   0.004194
 -2.164185   0.869242   5.008288  10.347441  38.663650  -9.382989  15.134508  11.047511  -6.664096   4.497190   7.915708  -7.775768   2.136743 -15.597115   6.758670  -4.356783   7.704067 -10.792097 -13.177099   5.201006   6.047208  -0.010761  54.027543   0.018337  -0.566964   3.814365  -0.042010   4.461174  11.922443  -1.016404  30.398607   8.808106 -32.437586  -0.004236 -54.450486  -0.048693   0.887042  -1.405302  -2.591338 -13.533330 -13.658738   3.044349  55.003674  -0.016136  -0.013699  -9.723021  -4.986847  20.202791 -13.986945   0.018730  -0.056850 -36.644450  -5.593192   7.497213  41.874031  -0.000915  -0.000340  -9.501399 -12.057308  -5.216439  -7.298276  -0.002282   0.003631
 -2.166823   0.867615   5.010633  10.232704  38.913085  -9.065505  15.509194  11.138431  -6.832887   4.469592   8.020315  -8.100579   2.175212 -15.816676   6.862577  -4.102750   7.711378 -10.351992 -12.142514   5.013276   6.841936  -0.008328  54.038212   0.014471  -0.592220   4.043638   0.372730   4.089967  11.835219  -1.586542  29.093454   8.488289 -32.309342  -0.005085 -55.059091  -0.048062   0.941639  -1.458594  -2.565399 -13.302382 -13.688780   3.098965  55.144341  -0.013026  -0.010521 -10.399916  -5.200302  20.313153 -14.664697   0.017461  -0.046123 -36.639047  -5.556758   7.444453  42.078523  -0.001018   0.000196  -9.887464 -12.197758  -5.380147  -6.962542  -0.002087   0.003087
 -2.169281   0.866079   5.012915  10.104120  39.075351  -8.738902  15.848930  11.201143  -6.987068   4.434443   8.096511  -8.397943   2.208466 -16.022013   6.958632  -3.860141   7.718405  -9.912528 -11.167780   4.848047   7.603837  -0.006430  54.047570   0.011414  -0.618996   4.258396   0.817239   3.734037  11.735454  -2.135606  27.869186   8.171377 -32.200637  -0.006121 -55.633483  -0.046638   0.991561  -1.550375  -2.554601 -13.090009 -13.713449   3.134160  55.279324  -0.010577  -0.008088 -11.026080  -5.403861  20.413108 -15.245818   0.015998  -0.037047 -36.619540  -5.517806   7.412494  42.288474  -0.001145   0.000506 -10.250444 -12.323804  -5.535368  -6.689904  -0.001893   0.002477
 -2.171189   0.864631   5.015057   9.665887  39.177181  -8.210382  16.393062  11.196335  -7.066573   4.289049   8.221292  -8.735291   2.302077 -16.266443   7.089710  -3.750591   7.611998  -9.410103  -9.877860   4.581147   9.101850   0.018608  54.780096  -0.004569  -0.618220   4.249914   0.493907   3.489589  11.607972  -2.718156  26.354686   7.470699 -32.266158  -0.008446 -56.727803  -0.053677   1.097994  -0.763439  -2.312881 -12.886031 -13.898622   2.885163  55.630254  -0.009044  -0.006647 -12.058612  -5.900302  20.259559 -13.885475   0.011946  -0.033756 -36.335437  -5.446153   7.356739  42.551785  -0.001272   0.000639 -10.694623 -12.307272  -5.563945  -6.397583  -0.001998   0.002107
 -2.172857   0.863244   5.017154   9.105240  39.202329  -7.657537  16.892829  11.139874  -7.089533   4.140586   8.289714  -8.996970   2.382545 -16.493335   7.207333  -3.567916   7.543354  -8.705893  -8.603617   4.381894  10.687389   0.040319  55.498870  -0.017075  -0.623474   4.461702   0.452899   3.182148  11.373650  -3.397225  24.876594   6.682316 -32.403546  -0.009879 -57.819452  -0.057985   1.177788  -0.297349  -2.126736 -12.765822 -14.088805   2.575381  56.040098  -0.007930  -0.005927 -13.044412  -6.334329  20.115122 -12.793333   0.008879  -0.030470 -35.975268  -5.369073   7.374166  42.886682  -0.001484   0.000713 -11.133773 -12.278783  -5.601508  -6.192794  -0.001896   0.001749
 -2.174395   0.861906   5.019233   8.452735  39.146786  -7.082336  17.354609  11.025515  -7.081052   3.991641   8.295452  -9.196604   2.447735 -16.705976   7.315563  -3.349182   7.503999  -7.892638  -7.369381   4.235465  12.281225   0.056572  56.170342  -0.025715  -0.632638   4.699872   0.667072   2.842764  11.065850  -4.116935  23.455243   5.864651 -32.578369  -0.010647 -58.868094  -0.059081   1.240334  -0.050051  -2.006684 -12.712080 -14.278325   2.262603  56.484867  -0.007276  -0.005629 -13.987862  -6.703501  19.981347 -11.960035   0.006194  -0.026968 -35.560084  -5.280096   7.453593  43.279979  -0.001774   0.000694 -11.552939 -12.238244  -5.646302  -6.083584  -0.001659   0.001418
 -2.175806   0.860604   5.021296   7.741845  39.010195  -6.493096  17.770999  10.855009  -7.046031   3.839977   8.239199  -9.348543   2.503060 -16.905499   7.415275  -3.117450   7.473014  -7.031877  -6.186817   4.128051  13.839804   0.067371  56.793516  -0.030841  -0.644876   4.913393   1.044851   2.488860  10.713930  -4.837397  22.098875   5.050301 -32.771316  -0.011023 -59.864522  -0.057562   1.292869   0.064675  -1.924676 -12.695012 -14.459780   1.929369  56.962957  -0.006968  -0.005737 -14.858823  -7.076120  19.841874 -11.225066   0.004215  -0.024376 -35.109752  -5.175643   7.578658  43.720550  -0.002123   0.000555 -11.950928 -12.180138  -5.696650  -6.061477  -0.001353   0.001135
 -2.177115   0.859329   5.023332   7.003075  38.791060  -5.907643  18.136616  10.634088  -6.984609   3.679107   8.125227  -9.459551   2.551186 -17.092656   7.507491  -2.886937   7.435466  -6.164440  -5.062525   4.047656  15.336481   0.073311  57.370259  -0.032965  -0.659208   5.091746   1.511749   2.130721  10.338444  -5.532756  20.810416   4.258905 -32.969362  -0.011108 -60.805862  -0.054038   1.339359   0.096962  -1.853702 -12.704708 -14.629804   1.582253  57.445891  -0.006883  -0.006104 -15.672114  -7.434749  19.701577 -10.586074   0.002710  -0.022273 -34.631798  -5.047615   7.747866  44.182118  -0.002475   0.000320 -12.351092 -12.096579  -5.754203  -6.071737  -0.001071   0.000908
 -2.178343   0.858094   5.025329   6.253263  38.486728  -5.332177  18.454139  10.368710  -6.900958   3.507088   7.959097  -9.536065   2.593747 -17.268116   7.593217  -2.665630   7.383176  -5.316473  -3.999610   3.985204  16.756086   0.075237  57.902989  -0.032685  -0.674669   5.233506   2.014885   1.774176   9.952575  -6.187673  19.589615   3.501433 -33.163432  -0.010867 -61.691848  -0.048993   1.382220   0.077894  -1.773736 -12.736173 -14.787409   1.224826  57.917180  -0.006955  -0.006607 -16.434969  -7.774582  19.562394 -10.035705   0.001535  -0.020471 -34.137780  -4.895142   7.954803  44.659663  -0.002834  -0.000018 -12.737608 -11.986890  -5.815870  -6.130293  -0.000797   0.000732
 -2.179322   0.856852   5.027110   5.654897  38.058322  -4.672361  18.751409  10.059509  -6.968426   3.157092   7.798654  -9.693972   2.562625 -17.397084   7.641479  -2.516501   7.228659  -4.477206  -2.482884   3.834817  18.690586   0.112419  59.250619  -0.047270  -0.573923   5.034046   1.832041   1.486137   9.607762  -6.773069  18.230106   2.516301 -33.397552  -0.012739 -63.467404  -0.050446   1.452682   0.938970  -1.640431 -13.057613 -14.962085   0.649663  58.623731  -0.008549  -0.008522 -16.895192  -7.998856  19.050366  -9.871801   0.001548  -0.017322 -33.760620  -4.381838   8.029364  45.126227  -0.002514   0.000091 -13.081734 -11.682168  -5.604496  -6.201035  -0.000457   0.000407
